<svg xmlns="http://www.w3.org/2000/svg" width="39" height="28" fill="none" viewBox="0 0 39 28">
    <path fill="#000" fill-rule="evenodd" d="M38 7H1v19c0 .552.448 1 1 1h35c.552 0 1-.448 1-1V7zM0 6v20c0 1.105.895 2 2 2h35c1.105 0 2-.895 2-2V6H0z" clip-rule="evenodd"/>
    <path fill="#000" fill-rule="evenodd" d="M11 19.5v-5c0-1.38-1.12-2.5-2.5-2.5S6 13.12 6 14.5v5C6 20.88 7.12 22 8.5 22s2.5-1.12 2.5-2.5zM8.5 11C6.567 11 5 12.567 5 14.5v5C5 21.433 6.567 23 8.5 23s3.5-1.567 3.5-3.5v-5c0-1.933-1.567-3.5-3.5-3.5zM33 19.5v-5c0-1.38-1.12-2.5-2.5-2.5S28 13.12 28 14.5v5c0 1.38 1.12 2.5 2.5 2.5s2.5-1.12 2.5-2.5zM30.5 11c-1.933 0-3.5 1.567-3.5 3.5v5c0 1.933 1.567 3.5 3.5 3.5s3.5-1.567 3.5-3.5v-5c0-1.933-1.567-3.5-3.5-3.5zM16.318 20.682c.195.195.512.195.707 0l2.475-2.475 2.475 2.475c.195.195.512.195.707 0 .195-.195.195-.512 0-.707L20.207 17.5l2.475-2.475c.195-.195.195-.512 0-.707-.195-.195-.512-.195-.707 0L19.5 16.793l-2.475-2.475c-.195-.195-.512-.195-.707 0-.195.195-.195.512 0 .707l2.475 2.475-2.475 2.475c-.195.195-.195.511 0 .707zM37 1H2c-.552 0-1 .448-1 1v4h37V2c0-.552-.448-1-1-1zM2 0C.895 0 0 .895 0 2v5h39V2c0-1.105-.895-2-2-2H2z" clip-rule="evenodd"/>
</svg>
