<svg xmlns="http://www.w3.org/2000/svg" width="330" height="158" fill="none" viewBox="0 0 330 158">
    <path fill="#ED1941" d="M188.194 70.263h9.782l-9.902 7.311 9.602 30.138-8.282-5.944-8.461-26.274 7.261-5.231zM181.593 85.54l3.001 9.213-10.082-7.073-25.985 18.367 3.181-9.63 22.564-16.108 7.321 5.23zM164.73 83.519l-7.862 5.766 3.541-11.71-25.745-18.606 10.202-.06 22.504 16.169-2.64 8.44zM161.129 67.469l-7.801-5.766 12.302-.06 10.382-29.9 3.061 9.69-8.942 26.095-9.002-.06zM175.772 59.324l2.94-9.214 4.081 11.532 31.866.12-8.222 5.944-27.845.059-2.82-8.441z"/>
    <path fill="#fff" d="M52.27 75.313c-1.02-1.248-2.641-1.902-4.741-1.902h-8.042c-.48 0-.66.178-.72.654l-3.66 20.746c-.06.178-.06.416.06.535.12.178.36.178.54.178h.66c.42 0 .66-.178.72-.654l1.32-7.728h6.841c4.321 0 7.262-2.437 8.042-6.598.48-2.14.06-3.923-1.02-5.23zM45.367 85.3h-6.601l1.74-9.987h6.722c1.5 0 2.7.416 3.42 1.308.72.832.96 2.14.66 3.686-.48 3.15-2.76 4.993-5.94 4.993zM67.332 93.862c-.12-.179-.36-.179-.54-.179H56.23l3.42-19.497c0-.178 0-.357-.12-.535-.12-.178-.36-.178-.48-.178h-.66c-.48 0-.66.178-.72.653l-3.66 20.746c-.06.178-.06.416.06.535.12.178.36.178.54.178h11.942c.42 0 .66-.178.72-.653l.06-.535c.12-.12.12-.357 0-.535zM83.535 73.888c-.12-.416-.3-.594-.72-.594h-.6c-.36 0-.66.178-.84.535L69.433 94.812c-.18.238-.18.476-.12.595.06.178.3.238.54.238h.54c.48 0 .78-.06 1.02-.476l3.72-6.539h9.602l1.44 6.42c.06.595.6.595.9.595h.541c.24 0 .42-.06.48-.179.12-.119.18-.297.12-.535l-4.68-21.043zm.84 12.9h-8.281l5.94-10.344s0-.059.06-.059l2.281 10.402zM107.239 73.65c-.06-.118-.18-.237-.48-.237h-.78c-.48 0-.72.06-.96.416L96.257 84.41l-4.98-10.462c-.24-.475-.54-.475-.96-.475h-.72c-.3 0-.48.118-.54.237-.12.179-.12.357 0 .595l5.94 12.186-1.44 8.381c-.06.178-.06.416.06.535.12.178.36.178.54.178h.66c.42 0 .66-.178.72-.653l1.44-8.382 10.262-12.245.061-.06c.06-.297 0-.475-.061-.594zM123.982 73.651c-.12-.178-.36-.178-.48-.178H111.2c-.48 0-.66.178-.72.653l-3.661 20.746c-.06.178-.06.416.06.535.12.178.36.178.54.178h12.723c.42 0 .66-.178.72-.653l.06-.535c.06-.179.06-.357-.06-.535-.12-.179-.36-.179-.54-.179H108.98l1.44-8.381h9.722c.42 0 .66-.178.72-.654l.12-.535c0-.06.06-.357-.06-.535-.12-.178-.36-.178-.54-.178h-9.602l1.38-8.085h11.042c.42 0 .66-.178.72-.594l.121-.535c.06-.178.12-.357-.061-.535zM141.626 75.137c-.96-1.13-2.461-1.724-4.381-1.724h-8.642c-.48 0-.66.178-.72.654l-3.66 20.746c-.06.178-.06.416.06.535.12.178.36.178.54.178h.66c.42 0 .66-.178.72-.654l1.56-8.857h4.801c2.461 0 3.181.892 3.781 2.675l2.04 6.242c.18.475.54.534.96.534h.6c.301 0 .481-.118.541-.237.12-.179.12-.357.06-.535l-2.221-6.777c-.36-1.01-.84-1.724-1.44-2.2 3.12-.534 5.161-2.674 5.701-5.884.36-1.843 0-3.507-.96-4.696zm-6.361 9.095h-7.142l1.561-8.857h7.261c1.44 0 2.46.356 3.12 1.13.661.772.841 1.842.601 3.269-.601 2.793-2.521 4.458-5.401 4.458zM221.68 77.871c-1.08-3.328-3.3-4.874-7.081-4.874-4.981 0-8.101 2.08-8.762 5.885-.3 1.605-.06 2.972.721 3.983 1.32 1.783 3.9 2.318 6.301 2.615 2.22.297 4.08.595 4.921 1.724.42.594.6 1.367.42 2.437-.54 3.032-2.881 4.518-7.082 4.518-3.24 0-4.981-1.249-5.761-4.28-.06-.178-.12-.357-.3-.476s-.36-.059-.54 0l-.66.238c-.42.178-.6.416-.48.892.84 3.804 3.301 5.528 7.561 5.528 5.461 0 8.402-2.021 9.122-6.123.3-1.664.06-3.031-.72-3.982-1.26-1.665-3.721-2.14-6.001-2.438-2.161-.237-4.261-.594-5.221-1.842-.48-.654-.6-1.427-.42-2.497.42-2.675 2.76-4.16 6.601-4.16 3.001 0 4.621 1.129 5.461 3.685.18.594.6.475.9.356l.48-.237c.6-.298.6-.654.54-.952zM239.984 73.591c-.12-.178-.36-.178-.48-.178h-14.463c-.42 0-.66.238-.72.654l-.12.594c0 .179 0 .357.12.535.12.179.36.179.54.179h6.181l-3.421 19.497c-.06.178-.06.416.06.535.12.178.36.178.54.178h.661c.42 0 .66-.178.72-.653l3.42-19.617h6.301c.421 0 .661-.237.721-.594l.12-.535v-.06c-.06-.119-.06-.356-.18-.535zM249.165 73.888c-.12-.416-.3-.594-.72-.594h-.6c-.36 0-.66.178-.84.535l-11.942 20.983c-.18.238-.18.476-.12.595.06.178.3.238.54.238h.54c.48 0 .78-.06 1.02-.476l3.721-6.539h9.602l1.44 6.42c.06.595.6.595.9.595h.54c.24 0 .42-.06.48-.179.12-.119.18-.297.12-.535l-4.681-21.043zm.84 12.9h-8.281l5.941-10.344s0-.059.06-.059l2.28 10.402zM274.37 75.137c-.96-1.13-2.461-1.724-4.381-1.724h-8.641c-.481 0-.661.178-.721.654l-3.66 20.746c-.06.178-.06.416.06.535.12.178.36.178.54.178h.66c.42 0 .66-.178.72-.654l1.56-8.857h4.801c2.461 0 3.181.892 3.781 2.675l2.04 6.242c.18.475.54.534.96.534h.601c.3 0 .48-.118.54-.237.12-.179.12-.357.06-.535l-2.221-6.777c-.36-1.01-.84-1.724-1.44-2.2 3.121-.534 5.161-2.674 5.701-5.884.3-1.843 0-3.507-.96-4.696zm-6.421 9.095h-7.142l1.561-8.857h7.261c1.44 0 2.46.356 3.121 1.13.66.772.84 1.842.6 3.269-.54 2.793-2.521 4.458-5.401 4.458zM294.894 77.871c-1.081-3.328-3.301-4.874-7.082-4.874-4.981 0-8.101 2.08-8.761 5.885-.3 1.605-.06 2.972.72 3.983 1.32 1.783 3.901 2.318 6.301 2.615 2.22.297 4.081.595 4.921 1.724.42.594.6 1.367.42 2.437-.54 3.032-2.881 4.518-7.081 4.518-3.241 0-4.981-1.249-5.761-4.28-.06-.178-.12-.357-.3-.476s-.36-.059-.541 0l-.66.238c-.42.178-.6.416-.48.892.84 3.804 3.301 5.528 7.562 5.528 5.461 0 8.401-2.021 9.121-6.123.3-1.664.06-3.031-.72-3.982-1.26-1.665-3.72-2.14-6.001-2.438-2.16-.237-4.261-.594-5.221-1.842-.48-.654-.6-1.427-.42-2.497.42-2.675 2.761-4.16 6.601-4.16 3.001 0 4.621 1.129 5.461 3.685.18.594.6.475.9.356l.481-.237c.6-.298.6-.654.54-.952z"/>
</svg>
