<svg width="520" height="248" viewBox="0 0 520 248" fill="none" xmlns="http://www.w3.org/2000/svg">
<path d="M296.548 110.285H311.962L296.359 121.761L311.489 169.066L298.44 159.735L285.106 118.495L296.548 110.285Z" fill="white"/>
<path d="M286.146 134.263L290.875 148.725L274.988 137.622L234.042 166.453L239.054 151.338L274.61 126.053L286.146 134.263Z" fill="white"/>
<path d="M259.574 131.091L247.187 140.142L252.766 121.761L212.199 92.5572L228.274 92.4639L263.735 117.842L259.574 131.091Z" fill="white"/>
<path d="M253.901 105.899L241.608 96.849L260.993 96.7557L277.352 49.8242L282.175 65.0326L268.085 105.993L253.901 105.899Z" fill="white"/>
<path d="M276.974 93.1168L281.607 78.6548L288.038 96.7556L338.251 96.9422L325.295 106.273L281.418 106.366L276.974 93.1168Z" fill="white"/>
<path d="M82.364 118.213C80.7565 116.254 78.2033 115.228 74.8936 115.228H62.2222C61.4657 115.228 61.182 115.507 61.0874 116.254L55.3191 148.817C55.2246 149.097 55.2246 149.47 55.4137 149.656C55.6028 149.936 55.9811 149.936 56.2648 149.936H57.3049C57.9669 149.936 58.3451 149.656 58.4397 148.91L60.5201 136.781H71.3002C78.1087 136.781 82.7423 132.955 83.9716 126.424C84.7281 123.065 84.0662 120.266 82.364 118.213ZM71.4893 133.888H61.0874L63.8298 118.213H74.4208C76.7848 118.213 78.6761 118.866 79.8109 120.266C80.9456 121.572 81.3239 123.625 80.851 126.051C80.0945 130.996 76.5012 133.888 71.4893 133.888Z" fill="white"/>
<path d="M106.099 147.326C105.91 147.046 105.532 147.046 105.248 147.046H88.6052L93.9953 116.442C93.9953 116.162 93.9953 115.883 93.8061 115.603C93.617 115.323 93.2388 115.323 93.0496 115.323H92.0095C91.253 115.323 90.9693 115.603 90.8747 116.349L85.1064 148.912C85.0118 149.192 85.0118 149.565 85.2009 149.752C85.3901 150.032 85.7683 150.032 86.052 150.032H104.87C105.532 150.032 105.91 149.752 106.005 149.005L106.099 148.166C106.288 147.979 106.288 147.606 106.099 147.326Z" fill="white"/>
<path d="M131.631 115.976C131.442 115.323 131.158 115.043 130.497 115.043H129.551C128.984 115.043 128.511 115.323 128.227 115.883L109.409 148.819C109.125 149.192 109.125 149.565 109.22 149.752C109.314 150.032 109.693 150.125 110.071 150.125H110.922C111.679 150.125 112.151 150.032 112.53 149.379L118.392 139.115H133.523L135.792 149.192C135.887 150.125 136.738 150.125 137.21 150.125H138.062C138.44 150.125 138.723 150.032 138.818 149.845C139.007 149.658 139.102 149.379 139.007 149.005L131.631 115.976ZM132.955 136.223H119.905L129.267 119.988C129.267 119.988 129.267 119.895 129.362 119.895L132.955 136.223Z" fill="white"/>
<path d="M168.983 115.603C168.889 115.416 168.7 115.229 168.227 115.229H166.998C166.241 115.229 165.863 115.323 165.485 115.883L151.678 132.491L143.83 116.069C143.452 115.323 142.979 115.323 142.317 115.323H141.182C140.709 115.323 140.425 115.509 140.331 115.696C140.142 115.976 140.142 116.256 140.331 116.629L149.693 135.756L147.423 148.912C147.329 149.192 147.329 149.565 147.518 149.752C147.707 150.032 148.085 150.032 148.369 150.032H149.409C150.071 150.032 150.449 149.752 150.544 149.005L152.813 135.85L168.983 116.629L169.078 116.536C169.173 116.069 169.078 115.789 168.983 115.603Z" fill="white"/>
<path d="M195.366 115.603C195.177 115.323 194.799 115.323 194.61 115.323H175.225C174.468 115.323 174.184 115.603 174.09 116.349L168.321 148.912C168.227 149.192 168.227 149.565 168.416 149.752C168.605 150.032 168.983 150.032 169.267 150.032H189.314C189.976 150.032 190.355 149.752 190.449 149.005L190.544 148.166C190.638 147.886 190.638 147.606 190.449 147.326C190.26 147.046 189.882 147.046 189.598 147.046H171.726L173.995 133.89H189.314C189.976 133.89 190.355 133.61 190.449 132.864L190.638 132.024C190.638 131.931 190.733 131.464 190.544 131.184C190.355 130.904 189.976 130.904 189.693 130.904H174.563L176.738 118.215H194.137C194.799 118.215 195.177 117.935 195.272 117.282L195.461 116.442C195.555 116.162 195.65 115.883 195.366 115.603Z" fill="white"/>
<path d="M223.168 117.935C221.655 116.163 219.291 115.229 216.265 115.229H202.648C201.891 115.229 201.608 115.509 201.513 116.256L195.745 148.819C195.65 149.099 195.65 149.472 195.839 149.658C196.028 149.938 196.407 149.938 196.69 149.938H197.73C198.392 149.938 198.771 149.658 198.865 148.912L201.324 135.01H208.889C212.766 135.01 213.901 136.409 214.846 139.208L218.061 149.005C218.345 149.752 218.912 149.845 219.574 149.845H220.52C220.993 149.845 221.277 149.658 221.371 149.472C221.56 149.192 221.56 148.912 221.466 148.632L217.967 137.996C217.399 136.409 216.643 135.29 215.697 134.543C220.615 133.704 223.83 130.345 224.681 125.306C225.248 122.414 224.681 119.801 223.168 117.935ZM213.144 132.211H201.891L204.35 118.309H215.792C218.061 118.309 219.669 118.868 220.709 120.081C221.749 121.294 222.033 122.974 221.655 125.213C220.709 129.598 217.683 132.211 213.144 132.211Z" fill="white"/>
<path d="M349.314 122.228C347.612 117.003 344.113 114.577 338.156 114.577C330.307 114.577 325.39 117.842 324.35 123.814C323.877 126.333 324.255 128.479 325.485 130.065C327.565 132.864 331.631 133.704 335.414 134.17C338.913 134.637 341.844 135.103 343.168 136.876C343.83 137.809 344.113 139.022 343.83 140.702C342.979 145.46 339.291 147.793 332.671 147.793C327.565 147.793 324.823 145.833 323.593 141.075C323.499 140.795 323.404 140.515 323.121 140.328C322.837 140.142 322.553 140.235 322.269 140.328L321.229 140.702C320.567 140.981 320.284 141.355 320.473 142.101C321.797 148.073 325.674 150.778 332.388 150.778C340.993 150.778 345.626 147.606 346.761 141.168C347.234 138.556 346.856 136.41 345.626 134.917C343.641 132.304 339.764 131.558 336.17 131.091C332.766 130.718 329.456 130.158 327.943 128.199C327.187 127.173 326.998 125.96 327.281 124.28C327.943 120.082 331.631 117.749 337.683 117.749C342.411 117.749 344.965 119.522 346.288 123.534C346.572 124.467 347.234 124.28 347.707 124.094L348.463 123.72C349.409 123.254 349.409 122.694 349.314 122.228Z" fill="white"/>
<path d="M378.156 115.51C377.967 115.23 377.589 115.23 377.399 115.23H354.61C353.948 115.23 353.57 115.603 353.475 116.256L353.286 117.189C353.286 117.469 353.286 117.749 353.475 118.029C353.664 118.309 354.043 118.309 354.326 118.309H364.066L358.676 148.912C358.581 149.192 358.582 149.566 358.771 149.752C358.96 150.032 359.338 150.032 359.622 150.032H360.662C361.324 150.032 361.702 149.752 361.797 149.006L367.187 118.216H377.116C377.778 118.216 378.156 117.842 378.251 117.283L378.44 116.443V116.35C378.345 116.163 378.345 115.79 378.156 115.51Z" fill="white"/>
<path d="M392.624 115.976C392.435 115.323 392.151 115.043 391.489 115.043H390.544C389.976 115.043 389.504 115.323 389.22 115.883L370.402 148.819C370.118 149.192 370.118 149.565 370.213 149.752C370.307 150.032 370.686 150.125 371.064 150.125H371.915C372.671 150.125 373.144 150.032 373.522 149.379L379.385 139.115H394.515L396.785 149.192C396.879 150.125 397.73 150.125 398.203 150.125H399.054C399.433 150.125 399.716 150.032 399.811 149.845C400 149.658 400.095 149.379 400 149.005L392.624 115.976ZM393.948 136.223H380.898L390.26 119.988C390.26 119.988 390.26 119.895 390.355 119.895L393.948 136.223Z" fill="white"/>
<path d="M432.34 117.936C430.827 116.163 428.463 115.23 425.437 115.23H411.82C411.064 115.23 410.78 115.51 410.686 116.256L404.917 148.819C404.823 149.099 404.823 149.472 405.012 149.659C405.201 149.939 405.579 149.939 405.863 149.939H406.903C407.565 149.939 407.943 149.659 408.038 148.912L410.496 135.01H418.061C421.939 135.01 423.073 136.41 424.019 139.209L427.234 149.006C427.518 149.752 428.085 149.846 428.747 149.846H429.693C430.165 149.846 430.449 149.659 430.544 149.472C430.733 149.192 430.733 148.912 430.638 148.633L427.139 137.996C426.572 136.41 425.816 135.29 424.87 134.544C429.787 133.704 433.002 130.345 433.853 125.307C434.326 122.414 433.853 119.802 432.34 117.936ZM422.222 132.211H410.969L413.428 118.309H424.87C427.139 118.309 428.747 118.869 429.787 120.082C430.827 121.295 431.111 122.974 430.733 125.213C429.882 129.599 426.761 132.211 422.222 132.211Z" fill="white"/>
<path d="M464.681 122.228C462.979 117.003 459.48 114.577 453.522 114.577C445.674 114.577 440.756 117.842 439.716 123.814C439.243 126.333 439.622 128.479 440.851 130.065C442.931 132.864 446.998 133.704 450.78 134.17C454.279 134.637 457.21 135.103 458.534 136.876C459.196 137.809 459.48 139.022 459.196 140.702C458.345 145.46 454.657 147.793 448.038 147.793C442.931 147.793 440.189 145.833 438.96 141.075C438.865 140.795 438.771 140.515 438.487 140.328C438.203 140.142 437.92 140.235 437.636 140.328L436.596 140.702C435.934 140.981 435.65 141.355 435.839 142.101C437.163 148.073 441.04 150.778 447.754 150.778C456.359 150.778 460.993 147.606 462.128 141.168C462.6 138.556 462.222 136.41 460.993 134.917C459.007 132.304 455.13 131.558 451.537 131.091C448.132 130.718 444.823 130.158 443.31 128.199C442.553 127.173 442.364 125.96 442.648 124.28C443.31 120.082 446.998 117.749 453.05 117.749C457.778 117.749 460.331 119.522 461.655 123.534C461.939 124.467 462.6 124.28 463.073 124.094L463.83 123.72C464.775 123.254 464.775 122.694 464.681 122.228Z" fill="white"/>
</svg>
