<svg xmlns="http://www.w3.org/2000/svg" width="146" height="70" fill="none" viewBox="0 0 146 70">
    <path fill="#ED1941" d="M83.262 31.129h4.327l-4.38 3.24 4.248 13.351-3.664-2.633-3.744-11.64 3.213-2.318zM80.341 37.897l1.328 4.082-4.46-3.134-11.497 8.138 1.407-4.266 9.983-7.137 3.24 2.317zM72.88 37.002l-3.478 2.554 1.567-5.188-11.39-8.243 4.513-.026 9.957 7.163-1.169 3.74zM71.287 29.891l-3.451-2.554 5.443-.027 4.593-13.246 1.354 4.292-3.956 11.561-3.983-.026zM77.766 26.283l1.3-4.082 1.806 5.11 14.098.052-3.637 2.634-12.32.026-1.247-3.74z"/>
    <path fill="#fff" d="M23.125 33.367c-.451-.553-1.168-.843-2.097-.843H17.47c-.212 0-.292.08-.319.29l-1.62 9.191c-.026.08-.026.185.027.237.054.08.16.08.24.08h.292c.185 0 .291-.08.318-.29l.584-3.424h3.027c1.912 0 3.213-1.08 3.558-2.923.212-.948.026-1.739-.452-2.318zm-3.053 4.425h-2.92l.77-4.425h2.973c.664 0 1.195.184 1.513.58.319.368.425.948.293 1.632-.213 1.396-1.222 2.212-2.629 2.212zM29.79 41.584c-.054-.079-.16-.079-.24-.079h-4.672l1.513-8.638c0-.079 0-.158-.053-.237-.053-.079-.16-.079-.213-.079h-.292c-.212 0-.292.08-.318.29l-1.62 9.191c-.026.08-.026.184.027.237.053.08.16.08.239.08h5.283c.186 0 .292-.08.319-.29l.026-.238c.053-.052.053-.158 0-.237zM36.958 32.736c-.053-.185-.133-.264-.319-.264h-.265c-.16 0-.292.08-.372.237l-5.283 9.297c-.08.105-.08.21-.053.263.026.079.132.105.238.105h.24c.212 0 .345-.026.45-.21l1.647-2.897h4.248l.637 2.844c.027.263.266.263.399.263h.238c.107 0 .186-.026.213-.079.053-.052.08-.131.053-.237l-2.071-9.322zm.372 5.714h-3.664l2.628-4.582s0-.026.027-.026l1.009 4.608zM47.445 32.63c-.026-.052-.08-.105-.212-.105h-.345c-.213 0-.319.026-.425.184l-3.876 4.688-2.204-4.635c-.106-.21-.239-.21-.425-.21h-.318c-.133 0-.213.052-.24.105-.053.079-.053.158 0 .263l2.63 5.399-.638 3.713c-.027.08-.027.184.026.237.053.08.16.08.24.08h.291c.186 0 .293-.08.319-.29l.637-3.714 4.54-5.425.027-.026c.026-.132 0-.211-.027-.264zM54.853 32.63c-.053-.079-.16-.079-.212-.079h-5.443c-.213 0-.292.08-.319.29l-1.62 9.191c-.026.08-.026.184.027.237.053.08.16.08.239.08h5.629c.185 0 .292-.08.318-.29l.027-.238c.026-.079.026-.158-.027-.237-.053-.079-.16-.079-.239-.079h-5.018l.637-3.713h4.302c.185 0 .292-.079.318-.29l.053-.237c0-.026.027-.158-.026-.237-.053-.079-.16-.079-.24-.079h-4.247l.61-3.581h4.886c.186 0 .292-.08.318-.264l.053-.237c.027-.079.053-.158-.026-.237zM62.659 33.289c-.425-.5-1.089-.764-1.938-.764h-3.824c-.212 0-.292.079-.318.29l-1.62 9.19c-.027.08-.027.185.027.238.053.079.159.079.239.079h.292c.185 0 .292-.08.318-.29l.69-3.924h2.125c1.088 0 1.407.395 1.672 1.185l.903 2.765c.08.211.239.237.425.237h.265c.133 0 .213-.052.24-.105.052-.079.052-.158.026-.237l-.983-3.002c-.159-.448-.371-.764-.637-.975 1.38-.237 2.283-1.185 2.523-2.607.159-.816 0-1.554-.425-2.08zm-2.815 4.029h-3.16l.691-3.924h3.213c.637 0 1.088.158 1.38.5.292.343.372.817.266 1.449-.266 1.238-1.115 1.975-2.39 1.975zM98.077 34.5c-.478-1.475-1.46-2.16-3.133-2.16-2.204 0-3.585.922-3.877 2.608-.132.71-.026 1.316.32 1.764.583.79 1.725 1.027 2.787 1.159.982.131 1.805.263 2.177.764.186.263.266.605.186 1.08-.24 1.342-1.275 2-3.133 2-1.434 0-2.204-.552-2.549-1.895-.026-.08-.053-.158-.133-.211-.08-.053-.159-.026-.239 0l-.292.105c-.186.08-.265.185-.212.395.372 1.686 1.46 2.45 3.345 2.45 2.416 0 3.717-.896 4.036-2.713.133-.737.026-1.343-.319-1.764-.557-.738-1.646-.949-2.655-1.08-.956-.106-1.885-.264-2.31-.817-.212-.29-.265-.632-.185-1.106.185-1.185 1.22-1.843 2.92-1.843 1.328 0 2.044.5 2.416 1.633.08.263.266.21.398.158l.213-.106c.265-.132.265-.29.239-.421zM106.175 32.604c-.054-.08-.16-.08-.213-.08h-6.398c-.186 0-.292.106-.32.29l-.052.264c0 .079 0 .158.053.237.053.079.16.079.239.079h2.735l-1.514 8.638c-.026.08-.026.184.027.237.053.08.159.08.239.08h.292c.186 0 .292-.08.318-.29l1.514-8.691h2.788c.185 0 .292-.106.318-.264l.053-.237v-.026c-.026-.053-.026-.158-.079-.237zM110.237 32.736c-.053-.185-.133-.264-.319-.264h-.265c-.16 0-.292.08-.372.237l-5.284 9.297c-.079.105-.079.21-.053.263.027.079.133.105.239.105h.239c.213 0 .345-.026.452-.21l1.646-2.897h4.248l.637 2.844c.027.263.265.263.398.263h.239c.106 0 .186-.026.213-.079.053-.052.079-.131.053-.237l-2.071-9.322zm.371 5.714h-3.663l2.628-4.582s0-.026.027-.026l1.008 4.608zM121.388 33.289c-.425-.5-1.089-.764-1.938-.764h-3.824c-.212 0-.292.079-.318.29l-1.62 9.19c-.026.08-.026.185.027.238.053.079.159.079.239.079h.292c.186 0 .292-.08.318-.29l.691-3.924h2.124c1.088 0 1.407.395 1.672 1.185l.903 2.765c.08.211.239.237.425.237h.265c.133 0 .213-.052.239-.105.054-.079.054-.158.027-.237l-.982-3.002c-.16-.448-.372-.764-.638-.975 1.381-.237 2.284-1.185 2.523-2.607.132-.816 0-1.554-.425-2.08zm-2.841 4.029h-3.159l.69-3.924h3.212c.638 0 1.089.158 1.381.5.292.343.372.817.266 1.449-.239 1.238-1.116 1.975-2.39 1.975zM130.468 34.5c-.478-1.475-1.46-2.16-3.133-2.16-2.204 0-3.584.922-3.876 2.608-.133.71-.027 1.316.318 1.764.585.79 1.726 1.027 2.788 1.159.983.131 1.806.263 2.177.764.186.263.266.605.186 1.08-.239 1.342-1.274 2-3.133 2-1.434 0-2.203-.552-2.549-1.895-.026-.08-.053-.158-.132-.211-.08-.053-.16-.026-.239 0l-.292.105c-.186.08-.266.185-.213.395.372 1.686 1.46 2.45 3.346 2.45 2.416 0 3.717-.896 4.035-2.713.133-.737.027-1.343-.318-1.764-.558-.738-1.647-.949-2.655-1.08-.956-.106-1.885-.264-2.31-.817-.213-.29-.266-.632-.186-1.106.186-1.185 1.221-1.843 2.92-1.843 1.328 0 2.045.5 2.416 1.633.08.263.266.21.399.158l.212-.106c.266-.132.266-.29.239-.421z"/>
</svg>
