<svg xmlns="http://www.w3.org/2000/svg" width="26" height="34" fill="none" viewBox="0 0 26 34">
    <path fill="#000" fill-rule="evenodd" d="M24.5 1h-23c-.276 0-.5.224-.5.5s.224.5.5.5h23c.276 0 .5-.224.5-.5s-.224-.5-.5-.5zm-23-1C.672 0 0 .672 0 1.5S.672 3 1.5 3h23c.828 0 1.5-.672 1.5-1.5S25.328 0 24.5 0h-23zM24.5 32h-23c-.276 0-.5.224-.5.5s.224.5.5.5h23c.276 0 .5-.224.5-.5s-.224-.5-.5-.5zm-23-1c-.828 0-1.5.672-1.5 1.5S.672 34 1.5 34h23c.828 0 1.5-.672 1.5-1.5s-.672-1.5-1.5-1.5h-23z" clip-rule="evenodd"/>
    <path fill="#000" fill-rule="evenodd" d="M21.819 8.035c.75-1.384 1.11-3.131.69-5.445l.983-.18c.459 2.52.073 4.501-.794 6.102-.86 1.588-2.172 2.76-3.497 3.707-.664.474-1.338.897-1.968 1.287l-.175.108c-.566.351-1.086.673-1.539.99-.5.352-.89.678-1.15 1-.255.316-.369.605-.369.896 0 .295.117.603.38.952.266.353.66.718 1.163 1.117.447.355.959.72 1.515 1.115l.202.144c.63.449 1.303.934 1.965 1.471 1.322 1.072 2.625 2.37 3.479 4.044.86 1.687 1.247 3.725.788 6.247l-.984-.18c.421-2.312.062-4.127-.695-5.613-.763-1.497-1.945-2.69-3.218-3.721-.635-.515-1.287-.986-1.915-1.434l-.203-.144c-.552-.393-1.086-.773-1.556-1.145-.525-.417-.997-.844-1.34-1.3-.346-.458-.581-.973-.581-1.553 0-.584.238-1.087.592-1.524.348-.431.826-.82 1.353-1.19.478-.335 1.023-.673 1.584-1.02l.178-.11c.628-.39 1.278-.797 1.912-1.25 1.27-.908 2.443-1.974 3.2-3.37zM4.181 8.035c-.75-1.384-1.11-3.131-.69-5.445l-.983-.18c-.459 2.52-.073 4.501.794 6.102.86 1.588 2.172 2.76 3.497 3.707.664.474 1.339.897 1.968 1.287.058.037.117.073.175.108.566.351 1.086.673 1.539.99.5.352.89.678 1.15 1 .255.316.369.605.369.896 0 .295-.117.603-.38.952-.266.353-.66.718-1.163 1.117-.447.355-.959.72-1.515 1.115l-.202.144c-.63.449-1.303.934-1.965 1.471-1.322 1.072-2.625 2.37-3.479 4.044-.86 1.687-1.247 3.725-.788 6.247l.984-.18c-.421-2.312-.062-4.127.695-5.613.763-1.497 1.945-2.69 3.218-3.721.635-.515 1.287-.986 1.915-1.434l.203-.144c.552-.393 1.086-.773 1.556-1.145.525-.417.997-.844 1.34-1.3.346-.458.581-.973.581-1.553 0-.584-.238-1.087-.592-1.524-.348-.431-.826-.82-1.353-1.19-.478-.335-1.023-.673-1.584-1.02l-.178-.11c-.628-.39-1.278-.797-1.912-1.25-1.27-.908-2.443-1.974-3.2-3.37z" clip-rule="evenodd"/>
</svg>
