<svg xmlns="http://www.w3.org/2000/svg" width="39" height="38" fill="none" viewBox="0 0 39 38">
    <path fill="#000" fill-rule="evenodd" d="M7.002.46C7.023.2 7.24 0 7.5 0h24c.26 0 .478.2.498.46v.004L32 .476l.003.042.01.161c.01.141.022.347.034.611.018.381.035.883.045 1.48.206-.076.45-.16.715-.246C33.593 2.27 34.63 2 35.5 2c1.118 0 2.01.38 2.618 1.04.602.654.882 1.534.882 2.46 0 2.621-1.043 5.474-2.681 7.674-1.556 2.088-3.713 3.67-6.117 3.815-.818 2.362-1.987 4.563-3.66 6.201-1.404 1.376-3.152 2.343-5.31 2.68.01.016.018.032.026.048.243.477.242 1.07.242 1.525v.113c0 .456.001 1.06-.24 1.543-.073.146-.168.282-.288.401.12.12.215.255.288.401.241.483.24 1.087.24 1.543v.112c0 .425 0 .98-.195 1.444H25.033l.067.004c.054.004.129.012.217.026.173.03.412.088.657.21.247.124.509.317.708.615.201.302.318.683.318 1.145 0 .462-.117.843-.318 1.145-.2.298-.461.491-.708.615-.245.122-.484.18-.657.21-.088.014-.163.022-.217.026l-.066.003h-.021c-.762.01-8.265.001-11.014.001h-.032l-.028-.002-.039-.002c-.054-.004-.129-.012-.216-.026-.174-.03-.413-.088-.657-.21-.247-.124-.51-.317-.708-.615C12.117 35.843 12 35.462 12 35c0-.462.117-.843.319-1.145.199-.298.46-.491.707-.615.245-.122.484-.18.658-.21.087-.014.162-.022.216-.026l.067-.003h.02c.01-.001-.433-.001 3.7-.001h.008c-.196-.464-.195-1.019-.195-1.445v-.11c0-.457-.001-1.06.24-1.544.074-.146.168-.282.288-.401-.12-.12-.214-.255-.288-.401-.241-.483-.24-1.087-.24-1.544V27.5c0-.5.032-1.099.31-1.588.016-.028.032-.055.05-.082-2.841-.507-4.968-2.057-6.54-4.147-1.038-1.378-1.834-2.99-2.445-4.694-2.407-.144-4.582-1.725-6.155-3.813C1.063 10.976 0 8.124 0 5.5c0-.926.28-1.806.882-2.46C1.491 2.38 2.382 2 3.5 2c.869 0 1.907.271 2.693.524.266.085.508.17.715.246.007-.478.02-.894.034-1.237.014-.339.029-.606.04-.789l.014-.21.006-.075c.503.041.529.044 0 0zm.967.54c-.009.156-.019.348-.028.574-.02.493-.038 1.145-.04 1.916v.022c0 .26.001.533.005.817.031 2.287.217 5.331.834 8.384.248 1.226.563 2.446.963 3.615l.007.02c.598 1.743 1.383 3.371 2.408 4.734C13.82 23.344 16.185 24.88 19.51 25c2.699-.002 4.753-.975 6.334-2.524 1.596-1.563 2.728-3.731 3.521-6.133 1.482-4.482 1.744-9.653 1.735-12.842-.003-.907-.027-1.65-.051-2.165L31.031 1H7.97zm.56 14.95c-.311-1.002-.564-2.023-.769-3.038-.633-3.135-.822-6.246-.854-8.57l-.004-.505-.069-.027c-.236-.091-.567-.213-.945-.334C5.117 3.23 4.204 3 3.5 3c-.882 0-1.49.292-1.882.717C1.22 4.15 1 4.77 1 5.5c0 2.376.973 5.023 2.518 7.074 1.378 1.829 3.15 3.112 5.01 3.376zM19.508 26c-.53.042-.727.224-.83.406-.135.238-.179.595-.179 1.094 0 .538.011.904.135 1.151.05.101.118.176.228.233.119.062.314.116.637.116s.518-.054.637-.116c.11-.057.178-.132.228-.233.124-.247.135-.613.135-1.151s-.011-.889-.133-1.128c-.05-.098-.119-.175-.234-.236-.12-.064-.314-.121-.625-.135zm-.009 4c-.323 0-.518.054-.637.116-.11.057-.178.132-.228.233-.124.247-.135.613-.135 1.151s.011.904.135 1.151c.05.101.118.176.228.233.119.062.314.116.637.116s.518-.054.637-.116c.11-.057.178-.132.228-.233.124-.247.135-.613.135-1.151s-.011-.904-.135-1.151c-.05-.101-.118-.176-.228-.233-.119-.062-.314-.116-.637-.116zm-5.529 4.002c-.027.002-.07.006-.123.015-.108.018-.244.053-.374.118-.129.064-.241.152-.324.275-.08.12-.15.303-.15.59 0 .288.07.47.15.59.083.123.195.211.324.275.13.065.266.1.374.118.053.01.096.013.123.015L14 36h11c.005 0 .015 0 .029-.002.028-.002.07-.006.123-.015.108-.018.244-.053.374-.118.129-.064.242-.152.324-.275.08-.12.15-.303.15-.59 0-.288-.07-.47-.15-.59-.082-.123-.195-.211-.324-.275-.13-.065-.266-.1-.374-.118-.053-.01-.095-.013-.123-.015H13.97zM30.536 15.95c1.858-.262 3.618-1.545 4.98-3.375C37.044 10.526 38 7.88 38 5.5c0-.73-.22-1.35-.618-1.783-.391-.425-1-.717-1.882-.717-.704 0-1.617.229-2.388.476-.378.121-.709.243-.945.334l-.068.027c-.01 3.076-.275 7.815-1.563 12.114zM19.88 5.747c-.09-.153-.253-.247-.43-.247-.178 0-.342.094-.432.247L17.232 8.79c-.08.136-.213.232-.369.266l-3.468.745c-.175.038-.316.166-.37.335-.056.17-.016.356.103.489l2.365 2.626c.105.117.155.272.14.426l-.358 3.504c-.018.177.06.35.203.455.143.105.332.126.495.054l3.247-1.42c.146-.064.312-.064.458 0l3.247 1.42c.163.072.352.05.495-.054.144-.105.221-.278.203-.455l-.357-3.504c-.016-.154.034-.309.14-.426l2.364-2.626c.12-.133.159-.319.104-.489-.055-.17-.196-.297-.37-.335l-3.469-.745c-.156-.034-.29-.13-.369-.266L19.88 5.747zm-1.786 3.55l1.355-2.31 1.355 2.31c.222.378.593.645 1.021.737l2.624.564-1.787 1.984c-.293.326-.435.76-.39 1.197l.27 2.652-2.463-1.077c-.401-.176-.858-.176-1.26 0l-2.462 1.077.27-2.652c.045-.437-.098-.87-.391-1.197l-1.787-1.984 2.624-.564c.429-.092.8-.36 1.021-.737z" clip-rule="evenodd"/>
</svg>
