<svg width="25" height="25" viewBox="0 0 25 25" fill="none" xmlns="http://www.w3.org/2000/svg">
<path fill-rule="evenodd" clip-rule="evenodd" d="M12.5 24.5C19.1274 24.5 24.5 19.1274 24.5 12.5C24.5 5.87258 19.1274 0.5 12.5 0.5C5.87258 0.5 0.5 5.87258 0.5 12.5C0.5 19.1274 5.87258 24.5 12.5 24.5Z" stroke="black"/>
<path fill-rule="evenodd" clip-rule="evenodd" d="M12.5 12.5C14.1569 12.5 15.5 11.1569 15.5 9.5C15.5 7.84315 14.1569 6.5 12.5 6.5C10.8431 6.5 9.5 7.84315 9.5 9.5C9.5 11.1569 10.8431 12.5 12.5 12.5Z" stroke="black"/>
<path fill-rule="evenodd" clip-rule="evenodd" d="M9.67227 18.5C8.50092 18.5 7.59241 17.4896 7.96522 16.3792C8.54486 14.6527 9.80746 12.5 12.5 12.5C15.1939 12.5 16.453 14.6549 17.0294 16.3818C17.3999 17.4917 16.4917 18.5 15.3216 18.5H9.67227Z" stroke="black" stroke-linecap="round" stroke-linejoin="round"/>
</svg>
