<svg width="47" height="47" viewBox="0 0 47 47" fill="none" xmlns="http://www.w3.org/2000/svg">
<path fill-rule="evenodd" clip-rule="evenodd" d="M0 23.5C0 10.5213 10.5213 0 23.5 0C36.4786 0 47 10.5213 47 23.5C47 36.4786 36.4786 47 23.5 47C10.5213 47 0 36.4786 0 23.5ZM23.5 1C11.0736 1 1 11.0736 1 23.5C1 35.9264 11.0736 46 23.5 46C35.9263 46 46 35.9263 46 23.5C46 11.0736 35.9264 1 23.5 1Z" fill="black"/>
<path fill-rule="evenodd" clip-rule="evenodd" d="M23.5 23C26.5376 23 29 20.5376 29 17.5C29 14.4624 26.5376 12 23.5 12C20.4624 12 18 14.4624 18 17.5C18 20.5376 20.4624 23 23.5 23ZM23.5 24C27.0899 24 30 21.0899 30 17.5C30 13.9101 27.0899 11 23.5 11C19.9101 11 17 13.9101 17 17.5C17 21.0899 19.9101 24 23.5 24Z" fill="black"/>
<path fill-rule="evenodd" clip-rule="evenodd" d="M23.5 24C18.7033 24 14.589 26.7107 13.9853 31.0875C13.8584 32.0076 14.1315 32.6313 14.6506 33.1305C15.2201 33.6783 16.1209 34.0996 17.2427 34.399C19.4773 34.9953 22.1489 35 23.5 35C24.8511 35 27.5227 34.9953 29.7573 34.399C30.8791 34.0996 31.7799 33.6783 32.3494 33.1305C32.8685 32.6313 33.1416 32.0076 33.0147 31.0875C32.411 26.7107 28.2967 24 23.5 24ZM23.5 23C18.4347 23 13.7379 25.8889 13.0406 30.9444C12.3432 36 20.8288 36 23.5 36C26.1712 36 34.6567 36 33.9594 30.9444C33.2622 25.8889 28.5653 23 23.5 23Z" fill="black"/>
</svg>
