<svg width="26" height="25" viewBox="0 0 26 25" fill="none" xmlns="http://www.w3.org/2000/svg">
<path fill-rule="evenodd" clip-rule="evenodd" d="M13 24.5C19.6274 24.5 25 19.1274 25 12.5C25 5.87258 19.6274 0.5 13 0.5C6.37258 0.5 1 5.87258 1 12.5C1 19.1274 6.37258 24.5 13 24.5Z" stroke="black"/>
<path fill-rule="evenodd" clip-rule="evenodd" d="M12.9771 12.8679C14.5925 12.8679 15.694 13.3496 16.4544 14C17.221 14.6558 17.6671 15.506 17.9259 16.2795C18.2291 17.1863 17.6118 18.0881 16.5848 18.248C15.6673 18.3909 14.4472 18.515 12.9771 18.515C11.5071 18.515 10.2869 18.3909 9.36951 18.248C8.34245 18.0881 7.72515 17.1863 8.0284 16.2795C8.28718 15.506 8.7333 14.6558 9.49988 14C10.2603 13.3496 11.3618 12.8679 12.9771 12.8679Z" stroke="black"/>
<path fill-rule="evenodd" clip-rule="evenodd" d="M16.1767 9.67646C16.1767 11.4308 14.7545 12.8529 13.0002 12.8529C11.2459 12.8529 9.82373 11.4308 9.82373 9.67646C9.82373 7.92213 11.2459 6.49999 13.0002 6.49999C14.7545 6.49999 16.1767 7.92213 16.1767 9.67646Z" stroke="black"/>
</svg>
