<svg width="100" height="100" viewBox="0 0 100 100" fill="none" xmlns="http://www.w3.org/2000/svg">
<path fill-rule="evenodd" clip-rule="evenodd" d="M49.9779 51.0154C65.6802 51.0154 66.7951 61.6419 67.723 64.3798C68.8104 67.5893 66.4389 69.2238 62.9141 70.0576C59.5377 70.8563 55.2718 71.6633 50.0005 71.6633C44.7291 71.6633 40.9622 70.8563 37.7093 70.0576C34.2041 69.197 31.1455 67.5893 32.2328 64.3798C33.1607 61.6419 34.2756 51.0154 49.9779 51.0154Z" stroke="black"/>
<path fill-rule="evenodd" clip-rule="evenodd" d="M61.3338 39.5077C61.3338 45.8633 56.2597 51.0154 50.0005 51.0154C43.7412 51.0154 38.6671 45.8633 38.6671 39.5077C38.6671 33.1521 43.7412 28 50.0005 28C56.2597 28 61.3338 33.1521 61.3338 39.5077Z" stroke="black"/>
</svg>
