<svg xmlns="http://www.w3.org/2000/svg" width="200" height="200" fill="none" viewBox="0 0 200 200">
    <path fill="#ED1941" fill-rule="evenodd" d="M3 100c0 53.572 43.428 97 97 97s97-43.428 97-97-43.428-97-97-97S3 46.428 3 100zM100 0C44.772 0 0 44.772 0 100s44.772 100 100 100 100-44.772 100-100S155.228 0 100 0z" clip-rule="evenodd"/>
    <path fill="#ED1941" fill-rule="evenodd" d="M99.9 66.3c.531 0 1.021.293 1.284.767l10.35 18.658c.245.443.651.747 1.109.851l20.098 4.57c.51.116.923.501 1.086 1.012.162.512.051 1.073-.293 1.478l-13.701 16.102c-.323.379-.483.889-.433 1.406l2.071 21.483c.052.541-.179 1.069-.608 1.386-.428.317-.988.376-1.469.153l-18.817-8.707c-.432-.2-.921-.2-1.352 0l-18.818 8.707c-.481.223-1.041.164-1.47-.153-.428-.317-.66-.845-.607-1.386l2.071-21.483c.05-.517-.11-1.027-.433-1.406L66.267 93.636c-.345-.404-.456-.966-.293-1.478.163-.51.576-.896 1.086-1.012l20.098-4.57c.458-.104.864-.408 1.11-.85l10.349-18.659c.263-.474.753-.767 1.283-.767zm0 4.591l-9.066 16.345c-.653 1.177-1.753 2.021-3.039 2.313l-17.658 4.016 12.055 14.166c.867 1.018 1.281 2.366 1.151 3.714l-1.819 18.866 16.489-7.63c1.202-.556 2.573-.556 3.775 0l16.489 7.63-1.819-18.866c-.13-1.348.284-2.695 1.151-3.714l12.055-14.166-17.658-4.016c-1.287-.292-2.386-1.136-3.039-2.313L99.9 70.89zM114.327 31.389c.566.605.533 1.555-.072 2.12l-7.065 6.597c31.909 1.856 52.31 27.635 52.31 52.237 0 .828-.671 1.5-1.5 1.5-.828 0-1.5-.672-1.5-1.5 0-22.92-18.982-47.214-48.997-49.211l6.741 6.174c.611.56.653 1.509.093 2.12-.56.61-1.508.652-2.119.093l-9.731-8.913c-.309-.282-.485-.68-.487-1.099-.002-.418.171-.818.476-1.103l9.731-9.088c.606-.565 1.555-.533 2.12.073zM85.673 168.611c-.565-.606-.533-1.555.073-2.12l7.064-6.598c-31.91-1.855-52.31-27.635-52.31-52.236 0-.829.672-1.5 1.5-1.5.829 0 1.5.671 1.5 1.5 0 22.919 18.983 47.214 48.998 49.211l-6.742-6.175c-.61-.56-.652-1.508-.093-2.119.56-.611 1.509-.653 2.12-.093l9.73 8.913c.308.282.485.681.487 1.099.002.418-.17.818-.476 1.103l-9.73 9.087c-.606.566-1.555.533-2.12-.072z" clip-rule="evenodd"/>
</svg>
