<svg width="37" height="30" viewBox="0 0 37 30" fill="none" xmlns="http://www.w3.org/2000/svg">
<path d="M14.1004 21.7261L14.49 22.0394L14.4901 22.0394L14.1004 21.7261ZM14.3636 21.7281L14.7611 21.4248L14.7609 21.4245L14.3636 21.7281ZM14.4336 27.2904L14.8279 27.5978L14.828 27.5978L14.4336 27.2904ZM14.1237 27.2341L13.6552 27.4087L13.6552 27.4087L14.1237 27.2341ZM10.3882 19.153L10.7697 19.4762L10.7697 19.4762L10.3882 19.153ZM10.6939 19.2005L10.2362 19.4018L10.2363 19.4021L10.6939 19.2005ZM9.77012 24.1938L10.1378 24.5326L10.1378 24.5326L9.77012 24.1938ZM9.46267 24.141L9.00054 24.3319L9.00054 24.3319L9.46267 24.141ZM6.06557 16.467L6.50081 16.7131L6.50082 16.7131L6.06557 16.467ZM6.36155 16.4368L6.73204 16.101L6.73196 16.1009L6.36155 16.4368ZM6.41422 20.9738L6.7906 21.3029L6.79066 21.3029L6.41422 20.9738ZM6.09256 20.9023L5.61608 21.0538L5.61608 21.0538L6.09256 20.9023ZM9.38224 28.4372L9.72032 28.8056L9.72038 28.8055L9.38224 28.4372ZM9.44663 28.7571L9.2713 29.2253L9.27135 29.2254L9.44663 28.7571ZM14.884 27.9157L15.2268 28.2797L15.227 28.2795L14.884 27.9157ZM14.7848 27.5847L14.685 28.0746L14.6851 28.0747L14.7848 27.5847ZM4.91118 25.2751L4.63017 24.8615L4.6301 24.8615L4.91118 25.2751ZM4.92276 25.5846L4.68519 26.0245L4.68527 26.0246L4.92276 25.5846ZM10.4281 25.1574L10.7441 25.5448L10.7442 25.5447L10.4281 25.1574ZM10.3621 24.8426L10.2066 25.3178L10.2068 25.3178L10.3621 24.8426ZM1.45603 21.2191L1.66409 21.6737L1.66413 21.6737L1.45603 21.2191ZM1.42957 21.544L1.70063 21.1238L1.70051 21.1238L1.42957 21.544ZM6.44015 21.5419L6.13267 21.1476L6.13261 21.1477L6.44015 21.5419ZM6.39727 21.2383L6.60759 20.7847L6.6075 20.7846L6.39727 21.2383ZM4.1833 17.79C4.01555 17.5707 3.70174 17.5288 3.48239 17.6966C3.26304 17.8643 3.22122 18.1781 3.38897 18.3975L4.1833 17.79ZM17.5526 29.44C17.8063 29.5491 18.1004 29.4318 18.2094 29.1781C18.3185 28.9245 18.2013 28.6304 17.9476 28.5213L17.5526 29.44ZM0.809244 13.5162L1.30766 13.4765L1.30766 13.4764L0.809244 13.5162ZM1.09891 13.3608L0.79781 13.76L0.797958 13.7601L1.09891 13.3608ZM3.77881 17.8018L4.27777 17.7695L4.27776 17.7695L3.77881 17.8018ZM3.51989 17.9703L3.28915 18.4139L3.28918 18.4139L3.51989 17.9703ZM33.6101 18.3975C33.7778 18.1781 33.736 17.8643 33.5167 17.6966C33.2973 17.5288 32.9835 17.5707 32.8158 17.79L33.6101 18.3975ZM19.0515 28.5213C18.7978 28.6304 18.6806 28.9245 18.7897 29.1781C18.8988 29.4318 19.1928 29.5491 19.4465 29.44L19.0515 28.5213ZM36.1897 13.5162L36.6881 13.556L36.6882 13.5559L36.1897 13.5162ZM35.9 13.3608L36.201 13.7601L36.2011 13.76L35.9 13.3608ZM33.2201 17.8018L32.7212 17.7695L32.7212 17.7698L33.2201 17.8018ZM33.4791 17.9703L33.7098 18.4139L33.7099 18.4139L33.4791 17.9703ZM22.8987 21.7261L22.509 22.0394L22.5091 22.0394L22.8987 21.7261ZM22.6355 21.7281L22.2382 21.4245L22.238 21.4248L22.6355 21.7281ZM22.5655 27.2904L22.1711 27.5978L22.1712 27.5978L22.5655 27.2904ZM22.8754 27.2341L23.3439 27.4087L23.3439 27.4087L22.8754 27.2341ZM26.6109 19.153L26.2294 19.4762L26.2294 19.4762L26.6109 19.153ZM26.3052 19.2005L26.7628 19.4021L26.7629 19.4018L26.3052 19.2005ZM27.229 24.1938L26.8613 24.5326L26.8613 24.5326L27.229 24.1938ZM27.5364 24.141L27.9986 24.3319L27.9986 24.3319L27.5364 24.141ZM30.9335 16.467L30.4983 16.7131L30.4983 16.7131L30.9335 16.467ZM30.6376 16.4368L30.2672 16.1009L30.2671 16.101L30.6376 16.4368ZM30.5849 20.9738L30.2085 21.3029L30.2085 21.3029L30.5849 20.9738ZM30.9066 20.9023L31.383 21.0538L31.383 21.0538L30.9066 20.9023ZM27.6169 28.4372L27.2787 28.8055L27.2788 28.8056L27.6169 28.4372ZM27.5525 28.7571L27.7278 29.2254L27.7278 29.2253L27.5525 28.7571ZM22.1151 27.9157L21.7721 28.2795L21.7723 28.2797L22.1151 27.9157ZM22.2143 27.5847L22.314 28.0747L22.3141 28.0746L22.2143 27.5847ZM32.0879 25.2751L32.369 24.8615L32.3689 24.8615L32.0879 25.2751ZM32.0764 25.5846L32.3138 26.0246L32.3139 26.0245L32.0764 25.5846ZM26.571 25.1574L26.2549 25.5447L26.255 25.5449L26.571 25.1574ZM26.637 24.8426L26.7923 25.3178L26.7925 25.3178L26.637 24.8426ZM35.5431 21.2191L35.335 21.6737L35.335 21.6737L35.5431 21.2191ZM35.5695 21.544L35.2986 21.1238L35.2985 21.1238L35.5695 21.544ZM30.559 21.5419L30.8665 21.1477L30.8664 21.1476L30.559 21.5419ZM30.6018 21.2383L30.3916 20.7846L30.3915 20.7847L30.6018 21.2383ZM14.4901 22.0394C14.3606 22.2005 14.1011 22.208 13.9663 22.0316L14.7609 21.4245C14.4922 21.0728 13.978 21.0803 13.7107 21.4128L14.4901 22.0394ZM13.9661 22.0314C14.2796 22.4422 14.5773 23.3426 14.6394 24.3646C14.7013 25.3834 14.5191 26.3673 14.0392 26.983L14.828 27.5978C15.525 26.7035 15.7059 25.4279 15.6376 24.3039C15.5695 23.1831 15.2437 22.0573 14.7611 21.4248L13.9661 22.0314ZM14.0393 26.983C14.1179 26.8822 14.2458 26.8426 14.3574 26.8637C14.4643 26.884 14.5544 26.9581 14.5922 27.0594L13.6552 27.4087C13.8253 27.8651 14.4706 28.0561 14.8279 27.5978L14.0393 26.983ZM14.5922 27.0594C14.1878 25.9744 13.9889 24.9133 13.9852 24.0156C13.9816 23.1035 14.1787 22.4266 14.49 22.0394L13.7108 21.4127C13.1941 22.0552 12.9812 23.0009 12.9853 24.0196C12.9894 25.0528 13.2162 26.2309 13.6552 27.4087L14.5922 27.0594ZM10.7697 19.4762C10.6086 19.6664 10.3236 19.6006 10.2362 19.4018L11.1515 18.9992C10.9543 18.5508 10.3437 18.4318 10.0066 18.8298L10.7697 19.4762ZM10.2363 19.4021C10.9424 21.0045 10.5715 22.5862 9.40242 23.855L10.1378 24.5326C11.54 23.0108 12.0385 21.012 11.1514 18.9989L10.2363 19.4021ZM9.40243 23.855C9.55046 23.6943 9.83328 23.7285 9.92481 23.9501L9.00054 24.3319C9.19615 24.8055 9.8053 24.8935 10.1378 24.5326L9.40243 23.855ZM9.92481 23.9501C9.60236 23.1694 9.60327 22.2964 9.79967 21.4787C9.99662 20.6586 10.3809 19.9352 10.7697 19.4762L10.0067 18.8298C9.50961 19.4166 9.05814 20.2841 8.82732 21.2451C8.59595 22.2084 8.57705 23.3065 9.00054 24.3319L9.92481 23.9501ZM6.50082 16.7131C6.3885 16.9117 6.12666 16.9221 5.99115 16.7726L6.73196 16.1009C6.42707 15.7647 5.86625 15.8036 5.63033 16.2209L6.50082 16.7131ZM5.99107 16.7726C6.54621 17.3851 6.80771 18.0566 6.81496 18.7069C6.82221 19.357 6.57588 20.0292 6.03779 20.6447L6.79066 21.3029C7.47106 20.5246 7.8252 19.6199 7.8149 18.6957C7.80459 17.7718 7.43051 16.8717 6.73204 16.101L5.99107 16.7726ZM6.03785 20.6446C6.21163 20.4459 6.50295 20.5429 6.56905 20.7507L5.61608 21.0538C5.77218 21.5447 6.42161 21.7248 6.7906 21.3029L6.03785 20.6446ZM6.56905 20.7508C6.13164 19.3753 5.85093 17.8624 6.50081 16.7131L5.63034 16.2209C4.74792 17.7814 5.18099 19.6857 5.61608 21.0538L6.56905 20.7508ZM9.04415 28.0688C8.65624 28.4248 8.7963 29.0475 9.2713 29.2253L9.62196 28.2888C9.82721 28.3657 9.89663 28.6438 9.72032 28.8056L9.04415 28.0688ZM9.27135 29.2254C10.413 29.6527 11.4362 29.8749 12.4228 29.7461C13.4229 29.6154 14.3201 29.1334 15.2268 28.2797L14.5413 27.5517C13.7422 28.3041 13.0306 28.6582 12.2933 28.7545C11.5427 28.8525 10.7001 28.6924 9.62191 28.2888L9.27135 29.2254ZM15.227 28.2795C15.6544 27.8766 15.4142 27.2025 14.8845 27.0947L14.6851 28.0747C14.4671 28.0303 14.3443 27.7374 14.541 27.5519L15.227 28.2795ZM14.8847 27.0948C13.8155 26.8769 12.8339 26.6586 11.896 26.7284C10.9169 26.8013 10.0111 27.1811 9.04409 28.0689L9.72038 28.8055C10.5439 28.0495 11.2437 27.7797 11.9703 27.7257C12.7382 27.6685 13.5627 27.8459 14.685 28.0746L14.8847 27.0948ZM4.6301 24.8615C4.22459 25.1372 4.21365 25.7699 4.68519 26.0245L5.16033 25.1446C5.38852 25.2678 5.36915 25.5683 5.19226 25.6886L4.6301 24.8615ZM4.68527 26.0246C5.52051 26.4754 6.6248 26.6792 7.70438 26.619C8.78442 26.5587 9.9036 26.2303 10.7441 25.5448L10.1121 24.7699C9.48035 25.2851 8.58444 25.5683 7.64866 25.6205C6.71241 25.6728 5.80015 25.4899 5.16025 25.1446L4.68527 26.0246ZM10.7442 25.5447C11.1946 25.1772 10.9966 24.5239 10.5174 24.3673L10.2068 25.3178C10.1033 25.284 10.025 25.1951 10.0018 25.0875C9.97781 24.976 10.0152 24.849 10.112 24.77L10.7442 25.5447ZM10.5176 24.3674C8.56688 23.7289 6.63098 23.502 4.63017 24.8615L5.19219 25.6886C6.82112 24.5818 8.38527 24.7216 10.2066 25.3178L10.5176 24.3674ZM1.24797 20.7644C0.768564 20.9838 0.687407 21.6604 1.15864 21.9642L1.70051 21.1238C1.9214 21.2662 1.87254 21.5784 1.66409 21.6737L1.24797 20.7644ZM1.15852 21.9641C3.15592 23.2527 5.53019 22.8859 6.74769 21.9361L6.13261 21.1477C5.24447 21.8405 3.33411 22.1777 1.70063 21.1238L1.15852 21.9641ZM6.74764 21.9362C7.18375 21.5961 7.03184 20.9814 6.60759 20.7847L6.18695 21.6919C6.0939 21.6488 6.02682 21.5592 6.01113 21.4537C5.99478 21.3438 6.03651 21.2226 6.13267 21.1476L6.74764 21.9362ZM6.6075 20.7846C5.67451 20.3523 4.8096 20.1203 3.92647 20.1168C3.0431 20.1132 2.17902 20.3383 1.24794 20.7645L1.66413 21.6737C2.50163 21.2904 3.22094 21.1139 3.92243 21.1168C4.62417 21.1196 5.34559 21.302 6.18704 21.6919L6.6075 20.7846ZM3.38897 18.3975C7.04072 23.1724 10.5288 26.42 17.5526 29.44L17.9476 28.5213C11.104 25.5789 7.74692 22.4497 4.1833 17.79L3.38897 18.3975ZM1.30766 13.4764C1.33068 13.7648 1.00074 13.9131 0.79781 13.76L1.40001 12.9617C0.941752 12.616 0.262512 12.9506 0.310829 13.556L1.30766 13.4764ZM0.797958 13.7601C2.04333 14.6988 3.18142 16.3151 3.27986 17.8342L4.27776 17.7695C4.1542 15.8626 2.78674 14.0069 1.39986 12.9615L0.797958 13.7601ZM3.27986 17.8341C3.26378 17.5859 3.5302 17.4121 3.7506 17.5267L3.28918 18.4139C3.7603 18.6589 4.312 18.2982 4.27777 17.7695L3.27986 17.8341ZM3.75063 17.5268C3.13398 17.206 2.55311 16.6132 2.10671 15.8715C1.66181 15.1322 1.37175 14.2796 1.30766 13.4765L0.310828 13.556C0.38859 14.5305 0.734578 15.5308 1.2499 16.3871C1.76372 17.2409 2.46726 17.9864 3.28915 18.4139L3.75063 17.5268ZM32.8158 17.79C29.2521 22.4497 25.895 25.5789 19.0515 28.5213L19.4465 29.44C26.4703 26.42 29.9583 23.1724 33.6101 18.3975L32.8158 17.79ZM36.6882 13.5559C36.7363 12.9507 36.0574 12.6159 35.599 12.9616L36.2011 13.76C35.9981 13.9131 35.6684 13.7647 35.6913 13.4766L36.6882 13.5559ZM35.5991 12.9615C34.2122 14.0069 32.8447 15.8626 32.7212 17.7695L33.7191 17.8342C33.8175 16.3151 34.9556 14.6988 36.201 13.7601L35.5991 12.9615ZM32.7212 17.7698C32.6872 18.2981 33.2385 18.659 33.7098 18.4139L33.2485 17.5267C33.4689 17.4121 33.735 17.586 33.7191 17.8339L32.7212 17.7698ZM33.7099 18.4139C34.5317 17.9864 35.2353 17.2409 35.7491 16.3871C36.2644 15.5308 36.6104 14.5305 36.6881 13.556L35.6913 13.4764C35.6272 14.2796 35.3371 15.1322 34.8922 15.8715C34.4459 16.6133 33.865 17.206 33.2484 17.5268L33.7099 18.4139ZM23.2884 21.4128C23.0211 21.0803 22.5069 21.0727 22.2382 21.4245L23.0328 22.0316C22.8981 22.208 22.6385 22.2005 22.509 22.0394L23.2884 21.4128ZM22.238 21.4248C21.7554 22.0573 21.4297 23.1831 21.3615 24.3039C21.2933 25.4279 21.4741 26.7035 22.1711 27.5978L22.9599 26.983C22.48 26.3673 22.2978 25.3834 22.3597 24.3646C22.4218 23.3426 22.7195 22.4422 23.033 22.0314L22.238 21.4248ZM22.1712 27.5978C22.5285 28.0561 23.1738 27.8651 23.3439 27.4087L22.4069 27.0594C22.4447 26.9581 22.5348 26.884 22.6417 26.8637C22.7533 26.8426 22.8812 26.8822 22.9598 26.983L22.1712 27.5978ZM23.3439 27.4087C23.783 26.2309 24.0097 25.0528 24.0139 24.0196C24.018 23.0009 23.805 22.0552 23.2883 21.4127L22.5091 22.0394C22.8204 22.4266 23.0175 23.1035 23.0139 24.0156C23.0103 24.9133 22.8114 25.9744 22.4069 27.0594L23.3439 27.4087ZM26.9925 18.8299C26.6554 18.4318 26.0448 18.5508 25.8476 18.9992L26.7629 19.4018C26.6755 19.6006 26.3905 19.6664 26.2294 19.4762L26.9925 18.8299ZM25.8477 18.9989C24.9606 21.0119 25.4591 23.0108 26.8613 24.5326L27.5967 23.855C26.4276 22.5862 26.0567 21.0044 26.7628 19.4021L25.8477 18.9989ZM26.8613 24.5326C27.1938 24.8935 27.803 24.8055 27.9986 24.3319L27.0743 23.9501C27.1658 23.7285 27.4487 23.6943 27.5967 23.855L26.8613 24.5326ZM27.9986 24.3319C28.4221 23.3065 28.4032 22.2084 28.1718 21.2451C27.941 20.2841 27.4895 19.4166 26.9925 18.8298L26.2294 19.4762C26.6183 19.9352 27.0025 20.6586 27.1994 21.4787C27.3958 22.2964 27.3968 23.1694 27.0743 23.9501L27.9986 24.3319ZM31.3688 16.2209C31.1329 15.8036 30.572 15.7647 30.2672 16.1009L31.008 16.7726C30.8725 16.9221 30.6106 16.9117 30.4983 16.7131L31.3688 16.2209ZM30.2671 16.101C29.5686 16.8717 29.1945 17.7718 29.1842 18.6957C29.1739 19.6199 29.5281 20.5246 30.2085 21.3029L30.9613 20.6447C30.4232 20.0292 30.1769 19.357 30.1842 18.7069C30.1914 18.0566 30.4529 17.3851 31.008 16.7726L30.2671 16.101ZM30.2085 21.3029C30.5775 21.7248 31.2269 21.5447 31.383 21.0538L30.4301 20.7507C30.4962 20.5429 30.7875 20.4459 30.9613 20.6446L30.2085 21.3029ZM31.383 21.0538C31.8181 19.6857 32.2512 17.7814 31.3688 16.2209L30.4983 16.7131C31.1482 17.8624 30.8675 19.3753 30.4301 20.7508L31.383 21.0538ZM27.2788 28.8056C27.1025 28.6438 27.1719 28.3657 27.3772 28.2888L27.7278 29.2253C28.2028 29.0475 28.3429 28.4248 27.955 28.0688L27.2788 28.8056ZM27.3772 28.2888C26.299 28.6924 25.4564 28.8525 24.7058 28.7545C23.9685 28.6582 23.257 28.3041 22.4578 27.5517L21.7723 28.2797C22.679 29.1334 23.5762 29.6154 24.5763 29.7461C25.563 29.8749 26.5862 29.6527 27.7278 29.2254L27.3772 28.2888ZM22.4581 27.5519C22.6548 27.7374 22.532 28.0303 22.314 28.0747L22.1146 27.0947C21.5849 27.2025 21.3448 27.8766 21.7721 28.2795L22.4581 27.5519ZM22.3141 28.0746C23.4364 27.8459 24.2609 27.6685 25.0289 27.7257C25.7555 27.7797 26.4552 28.0495 27.2787 28.8055L27.955 28.0689C26.988 27.1811 26.0823 26.8013 25.1031 26.7284C24.1652 26.6586 23.1836 26.8769 22.1144 27.0948L22.3141 28.0746ZM31.8069 25.6886C31.63 25.5683 31.6106 25.2678 31.8388 25.1446L32.3139 26.0245C32.7855 25.7699 32.7745 25.1372 32.369 24.8615L31.8069 25.6886ZM31.8389 25.1446C31.199 25.4899 30.2867 25.6728 29.3505 25.6205C28.4147 25.5683 27.5188 25.2851 26.887 24.7699L26.255 25.5449C27.0955 26.2303 28.2147 26.5587 29.2947 26.619C30.3743 26.6792 31.4786 26.4754 32.3138 26.0246L31.8389 25.1446ZM26.8872 24.77C26.984 24.849 27.0213 24.976 26.9973 25.0875C26.9741 25.1951 26.8958 25.284 26.7923 25.3178L26.4817 24.3673C26.0025 24.5239 25.8046 25.1772 26.2549 25.5447L26.8872 24.77ZM26.7925 25.3178C28.6138 24.7216 30.178 24.5818 31.8069 25.6886L32.3689 24.8615C30.3681 23.502 28.4322 23.7289 26.4815 24.3674L26.7925 25.3178ZM35.335 21.6737C35.1266 21.5784 35.0777 21.2662 35.2986 21.1238L35.8405 21.9642C36.3117 21.6604 36.2306 20.9838 35.7511 20.7644L35.335 21.6737ZM35.2985 21.1238C33.665 22.1777 31.7546 21.8405 30.8665 21.1477L30.2514 21.9361C31.4689 22.8859 33.8432 23.2527 35.8406 21.9641L35.2985 21.1238ZM30.8664 21.1476C30.9626 21.2226 31.0043 21.3438 30.988 21.4537C30.9723 21.5592 30.9052 21.6488 30.8122 21.6919L30.3915 20.7847C29.9673 20.9814 29.8154 21.5961 30.2515 21.9362L30.8664 21.1476ZM30.8121 21.6919C31.6535 21.302 32.3749 21.1196 33.0767 21.1168C33.7782 21.1139 34.4975 21.2904 35.335 21.6737L35.7512 20.7645C34.8201 20.3383 33.956 20.1132 33.0726 20.1168C32.1895 20.1203 31.3246 20.3523 30.3916 20.7846L30.8121 21.6919Z" fill="#C5A208"/>
<path fill-rule="evenodd" clip-rule="evenodd" d="M18.0627 0.789557C18.253 0.445938 18.7471 0.445941 18.9374 0.789563L21.1957 4.86633C21.3191 5.08904 21.5258 5.24694 21.7653 5.30156L26.1961 6.31038C26.5621 6.39372 26.7092 6.83563 26.4661 7.12168L23.4313 10.6929C23.2681 10.885 23.1891 11.1406 23.2138 11.397L23.6697 16.1317C23.7067 16.5162 23.3123 16.7957 22.9618 16.6332L18.8521 14.729C18.6278 14.6251 18.3722 14.6251 18.1479 14.729L14.0382 16.6332C13.6877 16.7957 13.2933 16.5162 13.3303 16.1317L13.7863 11.397C13.811 11.1406 13.732 10.885 13.5687 10.6929L10.5339 7.12168C10.2908 6.83564 10.4379 6.39372 10.8039 6.31038L15.2347 5.30156C15.4743 5.24694 15.6809 5.08904 15.8043 4.86633L18.0627 0.789557Z" fill="#C5A208"/>
</svg>
