<svg width="36" height="36" viewBox="0 0 36 36" fill="none" xmlns="http://www.w3.org/2000/svg">
<path fill-rule="evenodd" clip-rule="evenodd" d="M17.5627 7.78956C17.753 7.44594 18.2471 7.44594 18.4374 7.78956L21.1714 12.7251C21.3166 12.9871 21.5598 13.1729 21.8415 13.2371L27.1961 14.4563C27.5621 14.5396 27.7092 14.9815 27.4661 15.2676L23.8016 19.5799C23.6095 19.8059 23.5165 20.1066 23.5456 20.4082L24.0968 26.1317C24.1338 26.5162 23.7394 26.7957 23.3889 26.6332L18.4142 24.3283C18.1503 24.206 17.8497 24.206 17.5858 24.3283L12.6112 26.6333C12.2607 26.7957 11.8662 26.5162 11.9033 26.1317L12.4544 20.4082C12.4835 20.1066 12.3905 19.8059 12.1985 19.5799L8.5339 15.2676C8.29082 14.9815 8.43789 14.5396 8.80391 14.4563L14.1585 13.2371C14.4403 13.1729 14.6835 12.9871 14.8286 12.7251L17.5627 7.78956Z" fill="#ED1941"/>
<path fill-rule="evenodd" clip-rule="evenodd" d="M0.5 18C0.5 8.33502 8.33502 0.5 18 0.5C27.665 0.5 35.5 8.33502 35.5 18C35.5 27.665 27.665 35.5 18 35.5C8.33502 35.5 0.5 27.665 0.5 18ZM18 1.5C13.6553 1.5 9.70276 3.17926 6.75609 5.92413L8.17132 7.33936C10.7552 4.95594 14.2076 3.5 18 3.5V1.5ZM18 4.5C10.5442 4.5 4.5 10.5442 4.5 18C4.5 25.4558 10.5442 31.5 18 31.5C25.4558 31.5 31.5 25.4558 31.5 18C31.5 10.5442 25.4558 4.5 18 4.5ZM32.4979 18.25C32.437 21.8541 31.061 25.1381 28.8292 27.6427L30.2455 29.059C32.8379 26.1903 34.4364 22.4063 34.4981 18.25H32.4979ZM28.1386 28.3663C25.7468 30.7058 22.5487 32.2243 19 32.4661V34.4702C23.1011 34.225 26.7986 32.4819 29.5528 29.7806L28.1386 28.3663ZM18 32.5C13.895 32.5 10.1884 30.7942 7.55045 28.0527L6.136 29.4672C9.13612 32.5705 13.3427 34.5 18 34.5V32.5ZM6.88125 27.3077C4.8704 24.9081 3.62191 21.848 3.50846 18.5H1.50743C1.6235 22.4 3.09293 25.9601 5.4622 28.7268L6.88125 27.3077ZM3.50846 17.5C3.63243 13.8416 5.11167 10.5269 7.45993 8.04219L6.04522 6.62748C3.33559 9.47496 1.63275 13.2894 1.50743 17.5H3.50846ZM32.4809 17.25C32.2871 13.4448 30.6262 10.0268 28.0527 7.55045L29.4672 6.136C32.403 8.97421 34.2883 12.8922 34.4833 17.25H32.4809ZM27.3077 6.88125C25.0281 4.97094 22.1524 3.74867 19 3.53394V1.52981C22.704 1.75123 26.0788 3.19456 28.7268 5.4622L27.3077 6.88125Z" fill="#ED1941"/>
</svg>
