<svg xmlns="http://www.w3.org/2000/svg" width="24" height="24" fill="none" viewBox="0 0 24 24">
    <path fill="#fff" fill-opacity=".1" d="M0 0h24v24H0V0z" opacity=".01"/>
    <path fill="#000" fill-rule="evenodd" d="M12.432 4.742c-.09-.154-.254-.249-.432-.249s-.343.095-.432.249l-1.074 1.843c-.07.12-.189.207-.326.237l-2.084.451c-.174.038-.315.165-.37.334-.055.17-.016.355.103.488l1.42 1.59c.094.105.14.244.125.384l-.215 2.122c-.017.177.06.35.204.455.144.104.333.124.496.053l1.951-.86c.129-.057.275-.057.403 0l1.952.86c.163.071.352.051.496-.053.144-.105.221-.278.203-.455l-.215-2.122c-.014-.14.032-.28.125-.384l1.421-1.59c.119-.133.158-.319.103-.488-.055-.17-.196-.296-.37-.334l-2.084-.451c-.138-.03-.256-.116-.327-.237l-1.073-1.843zm-1.074 2.346L12 5.987l.641 1.1c.212.365.567.623.979.712l1.246.27-.85.95c-.28.314-.416.732-.373 1.15l.128 1.268-1.166-.513c-.386-.17-.825-.17-1.21 0l-1.166.513.128-1.268c.043-.419-.093-.836-.374-1.15l-.849-.95 1.246-.27c.411-.09.766-.347.978-.711z" clip-rule="evenodd"/>
    <path fill="#000" fill-rule="evenodd" d="M4.024 2.934c.006-.529.44-.934.97-.934h14.141c.53 0 .963.405.97.934.002.216.003.465 0 .741.285-.254.63-.436 1.037-.511 1.515-.28 2.524.426 2.78 1.453.498 2-1.418 7.414-5.226 8.314-.046.011-.092.021-.139.03-1.033 2.571-2.743 4.681-5.557 5.063V21h3.5c.276 0 .5.224.5.5s-.224.5-.5.5h-9c-.276 0-.5-.224-.5-.5s.224-.5.5-.5H11v-2.995c-2.738-.427-4.41-2.511-5.428-5.042l-.139-.03C1.605 12.04-.419 6.665.079 4.664c.258-1.032 1.34-1.763 2.903-1.487.41.072.755.252 1.041.506-.003-.28-.002-.53 0-.749zm2.086 8.563C5.112 8.327 5.006 4.711 5.023 3h14.082c.018 1.711-.088 5.327-1.087 8.497-.503 1.6-1.212 3.01-2.179 4.008-.94.972-2.15 1.58-3.775 1.58s-2.834-.608-3.775-1.58c-.967-.998-1.675-2.408-2.18-4.008zm16.4-7.228c-.233-.132-.616-.227-1.187-.122-.34.063-.625.27-.86.651-.243.395-.398.934-.44 1.505-.111 1.535-.372 3.391-.964 5.46 1.105-.458 2.036-1.415 2.742-2.614.49-.83.836-1.724 1.027-2.523.197-.827.204-1.446.124-1.767-.065-.258-.215-.46-.443-.59zm-21.46.637c.101-.407.586-.951 1.758-.745.339.06.623.264.857.642.243.392.399.93.44 1.5.112 1.537.373 3.395.967 5.467-1.127-.455-2.086-1.414-2.817-2.61-.504-.827-.864-1.715-1.065-2.508C.982 5.83.972 5.22 1.05 4.906z" clip-rule="evenodd"/>
</svg>
